PathFileType	3	(X/Y/Z)	D:\minhoCalibration\240510\subject5_KPNP\preferred\preferred13.trc
DataRate	CameraRate	NumFrames	NumMarkers	Units	OrigDataRate	OrigDataStartFrame	OrigNumFrames
200.0	200.0	21	10	mm	200.0	457	141	
Frame#	Time	Left_Ankle_Outer1			Left_Ankle_Inner1			Left_Knee_Outer1			Left_Knee_Inner1			Left_Wrist1			Right_Wrist1			Right_Knee_Inner1			Right_Knee_Outer1			Right_Ankle_Inner1			Right_Ankle_Outer1			
		X1	Y1	Z1	X2	Y2	Z2	X3	Y3	Z3	X4	Y4	Z4	X5	Y5	Z5	X6	Y6	Z6	X7	Y7	Z7	X8	Y8	Z8	X9	Y9	Z9	X10	Y10	Z10	
457	2.275	258.93768	82.792	-496.18207	209.73206	99.508141	-493.97134	369.19904	525.32672	-336.90887	278.85437	514.42883	-313.52023	445.22372	969.04108	-516.44769	200.61287	1176.7034	-423.29401	-76.157089	908.41162	-49.189995	-81.26152	1003.6371	-62.964581	-276.17215	793.13647	-452.75165	-275.85184	890.09442	-460.35379
458	2.28	257.23541	81.46769	-496.63104	208.20728	98.49646	-494.23792	368.14996	524.6604	-338.61407	278.05652	513.47046	-313.92767	441.70187	967.14893	-519.43304	202.7491	1178.4788	-419.02039	-70.564415	915.48322	-39.752003	-72.214508	1010.7434	-52.628098	-297.60339	809.42291	-431.19269	-292.9783	906.54749	-439.31641
459	2.285	255.9008	80.052261	-497.13065	207.04874	96.922668	-494.16058	366.97302	523.8017	-340.39154	277.18079	512.39276	-314.68808	438.17886	965.24219	-522.20331	204.86473	1179.8011	-415.26154	-64.846588	922.36835	-31.084154	-63.344784	1017.6368	-43.275742	-318.02649	826.13763	-409.09692	-310.08673	922.67328	-417.20233
460	2.29	255.38951	78.867203	-497.73782	206.20734	95.314545	-494.34845	365.83289	522.93463	-342.29578	276.28476	511.2189	-315.55026	434.52563	963.21405	-524.66071	206.98195	1181.0759	-411.40491	-59.401752	929.16333	-22.595743	-54.603912	1024.3624	-34.786598	-338.94922	842.26099	-384.31738	-327.20068	938.46368	-393.8161
461	2.295	255.04616	77.389542	-498.91272	205.25314	93.88076	-494.68549	364.77682	522.01691	-344.26718	275.31076	509.86719	-316.55267	431.01907	961.4071	-526.97217	209.03163	1182.3346	-407.67883	-54.654076	935.7594	-15.708638	-46.428493	1030.6038	-27.516634	-359.43942	858.35046	-358.13757	-344.24756	953.95172	-369.27689
462	2.3	254.14886	75.839409	-499.15762	204.6712	92.488472	-495.10028	363.93637	521.2229	-346.2204	274.50262	508.6109	-317.56747	427.62924	959.60291	-529.24036	211.00711	1182.9781	-404.75436	-49.625488	942.66339	-9.1276321	-39.232262	1036.9192	-21.084013	-379.62625	874.20947	-329.81409	-361.4549	969.15649	-343.3811
463	2.305	253.79187	74.885689	-500.09424	204.09189	91.19577	-495.60184	363.08649	520.31122	-347.97604	273.76514	507.38412	-318.41211	424.14713	957.8819	-531.23938	213.1165	1183.8254	-401.5217	-45.459358	949.10529	-3.0543127	-32.575226	1042.7871	-15.81723	-399.84702	889.66565	-299.19205	-378.20267	984.04236	-315.70688
464	2.31	252.33928	73.6492	-500.21451	202.95944	90.338203	-495.80206	362.33154	519.55591	-349.38428	272.96552	506.27362	-319.15292	420.92096	956.36908	-533.23846	214.8784	1184.1105	-398.87402	-41.72744	955.42517	1.8396035	-26.468307	1048.585	-11.562987	-417.88113	904.58734	-268.46927	-394.91739	998.93567	-286.5708
465	2.315	251.11118	73.12825	-500.53311	201.90828	89.751381	-495.61609	361.7919	518.75909	-350.75284	272.4765	505.35916	-319.28302	417.51926	954.73767	-534.77893	216.82365	1184.8087	-396.61951	-38.32304	961.50824	5.9218855	-21.686064	1053.882	-8.4192829	-435.79263	920.34747	-234.7113	-410.86182	1013.5975	-255.65363
466	2.32	249.79372	72.855942	-500.58435	200.47057	89.020668	-495.29095	361.29163	518.20331	-351.57968	272.24182	505.20135	-318.45447	414.21008	953.10876	-536.09943	217.93053	1185.277	-394.30341	-35.468712	967.26093	9.0511026	-17.715405	1058.9558	-6.3684177	-452.40964	935.89142	-198.75267	-426.2001	1028.1349	-223.01775
467	2.325	248.37988	72.759277	-500.35532	198.74815	88.911942	-494.48953	360.77698	517.91718	-352.04294	271.84592	504.89099	-318.19797	411.578	952.34338	-537.51599	219.02695	1185.4669	-392.43958	-32.778698	973.03485	10.96244	-14.895481	1063.6183	-5.3522849	-467.15811	951.08142	-161.46033	-440.45801	1042.6315	-188.44746
468	2.33	247.19617	72.920036	-500.17642	197.09964	88.829803	-493.37769	360.07687	517.6825	-352.10129	271.37057	504.7363	-318.24695	408.77386	951.38068	-538.43451	219.65477	1185.9535	-390.76236	-31.081072	977.43915	11.793766	-13.043309	1067.6654	-5.3439364	-479.79593	965.88086	-122.90272	-453.448	1056.9026	-151.99709
469	2.335	246.60684	73.340851	-500.29929	196.5186	88.959244	-493.07202	359.41519	517.78119	-351.82513	271.00104	505.12445	-317.59848	406.04449	950.45996	-538.92676	219.97903	1186.2584	-389.15189	-30.213993	981.10034	11.09916	-12.543227	1071.0138	-6.2744341	-490.11902	979.86273	-83.853966	-464.70639	1070.825	-113.96603
470	2.34	245.5351	73.516327	-499.69571	195.62498	89.17881	-492.61493	358.55319	518.32513	-351.13763	270.48523	505.67438	-316.78064	404.25937	950.02295	-539.66479	220.29712	1186.653	-388.83469	-30.578884	983.70392	8.9868822	-12.942878	1073.494	-8.0936117	-498.17398	993.51483	-41.635738	-473.76926	1084.2975	-74.289825
471	2.345	245.3	74.058388	-499.47055	195.13306	89.616516	-492.07892	357.55215	518.61639	-350.64404	269.7916	506.36423	-315.81979	402.11053	949.63995	-539.48962	220.04727	1186.9845	-388.47351	-32.313801	985.59534	5.7440352	-14.826217	1075.0258	-10.67667	-503.49576	1005.9656	0.72979116	-479.97397	1096.936	-33.410561
472	2.35	244.66983	74.465271	-498.96942	194.74605	89.799484	-491.59622	356.57596	519.32678	-349.68961	268.8941	507.02756	-314.98108	400.73752	949.41644	-539.37915	219.44286	1187.4258	-388.50909	-35.744659	986.51361	1.5288715	-17.47875	1075.6918	-13.825007	-504.36853	1017.9933	43.723083	-482.78262	1108.7097	8.1006813
473	2.355	244.16412	74.864288	-498.5752	194.34734	90.3508	-491.26132	355.25986	519.9198	-348.655	267.87772	507.66934	-314.17572	399.41458	949.47748	-538.45001	218.57903	1187.8219	-388.99823	-40.496212	986.8028	-3.1313381	-21.048626	1075.53	-17.125347	-501.43765	1028.6085	86.128059	-481.75305	1119.1301	49.774055
474	2.36	243.94505	75.259575	-498.25241	194.30078	90.761635	-490.96094	353.76935	520.73859	-347.49683	266.39578	508.27707	-313.16064	398.85547	949.7149	-537.78455	217.20912	1188.6199	-389.66159	-46.457386	987.12189	-8.1103306	-24.988256	1074.6805	-20.764801	-494.14801	1037.3232	128.67787	-476.59814	1127.6576	90.759682
475	2.365	244.5303	75.897896	-498.4165	194.2619	91.015465	-490.74591	352.09912	521.42645	-346.14987	264.83109	508.74591	-312.32657	397.73483	949.95642	-535.58215	215.09335	1189.3912	-390.19833	-52.794815	988.29224	-12.930104	-28.901016	1074.3955	-24.477413	-480.19797	1042.6989	169.2542	-467.32376	1133.3943	130.25339
476	2.37	244.43663	76.189201	-497.74634	194.84563	91.331619	-490.94708	350.17603	522.05304	-344.72339	262.83472	509.11874	-311.31982	397.20218	950.41394	-533.20032	213.1582	1190.2303	-391.70428	-60.523022	990.09613	-18.038759	-32.515343	1075.452	-28.02593	-462.78647	1044.6805	207.47723	-454.72626	1135.7311	167.06979
477	2.375	244.88571	76.647438	-497.45654	194.90257	91.551468	-490.63892	347.99344	522.75989	-342.86813	260.56189	509.51349	-310.15576	396.31747	950.83356	-529.67566	210.28157	1191.002	-392.9382	-67.394089	993.52942	-22.53302	-35.209324	1078.2419	-30.917215	-445.96991	1044.0482	230.3495	-441.88196	1133.478	192.66905
